<mxfile host="Electron" modified="2024-08-26T08:15:42.408Z" agent="Mozilla/5.0 (Windows NT 10.0; Win64; x64) AppleWebKit/537.36 (KHTML, like Gecko) draw.io/22.1.16 Chrome/120.0.6099.109 Electron/28.1.0 Safari/537.36" etag="nqLsj9hmEJjTPpE2wUol" version="22.1.16" type="device">
  <diagram name="Page-1" id="gbDvgD6Yeap9GhXsHFMk">
    <mxGraphModel dx="1883" dy="935" grid="1" gridSize="10" guides="1" tooltips="1" connect="1" arrows="1" fold="1" page="1" pageScale="1" pageWidth="400" pageHeight="120" math="0" shadow="0">
      <root>
        <mxCell id="0" />
        <mxCell id="1" parent="0" />
        <mxCell id="onQa2OD9SXyAo4OJvlsq-6" value="1" style="points=[[0.145,0.145,0],[0.5,0,0],[0.855,0.145,0],[1,0.5,0],[0.855,0.855,0],[0.5,1,0],[0.145,0.855,0],[0,0.5,0]];shape=mxgraph.bpmn.event;html=1;verticalLabelPosition=middle;labelBackgroundColor=#ffffff;verticalAlign=middle;align=center;perimeter=ellipsePerimeter;outlineConnect=0;aspect=fixed;outline=standard;symbol=general;labelPosition=center;" vertex="1" parent="1">
          <mxGeometry x="-1105" y="-435" width="30" height="30" as="geometry" />
        </mxCell>
        <mxCell id="onQa2OD9SXyAo4OJvlsq-39" style="rounded=0;orthogonalLoop=1;jettySize=auto;html=1;curved=1;" edge="1" parent="1" target="onQa2OD9SXyAo4OJvlsq-31">
          <mxGeometry relative="1" as="geometry">
            <mxPoint x="-749.8236036593194" y="-364.73184517905736" as="sourcePoint" />
            <Array as="points">
              <mxPoint x="-770" y="-470" />
            </Array>
          </mxGeometry>
        </mxCell>
        <mxCell id="onQa2OD9SXyAo4OJvlsq-53" style="edgeStyle=orthogonalEdgeStyle;rounded=0;orthogonalLoop=1;jettySize=auto;html=1;exitX=1;exitY=0.5;exitDx=0;exitDy=0;entryX=0;entryY=0.5;entryDx=0;entryDy=0;" edge="1" parent="1" source="onQa2OD9SXyAo4OJvlsq-44" target="onQa2OD9SXyAo4OJvlsq-46">
          <mxGeometry relative="1" as="geometry" />
        </mxCell>
        <mxCell id="onQa2OD9SXyAo4OJvlsq-54" value="X,Y" style="edgeLabel;html=1;align=center;verticalAlign=middle;resizable=0;points=[];" vertex="1" connectable="0" parent="onQa2OD9SXyAo4OJvlsq-53">
          <mxGeometry x="-0.1008" y="-1" relative="1" as="geometry">
            <mxPoint x="-1" y="-11" as="offset" />
          </mxGeometry>
        </mxCell>
        <mxCell id="onQa2OD9SXyAo4OJvlsq-44" value="2,3,5" style="ellipse;shape=doubleEllipse;whiteSpace=wrap;html=1;" vertex="1" parent="1">
          <mxGeometry x="-1032" y="-450" width="47" height="30" as="geometry" />
        </mxCell>
        <mxCell id="onQa2OD9SXyAo4OJvlsq-45" value="5" style="ellipse;shape=doubleEllipse;whiteSpace=wrap;html=1;" vertex="1" parent="1">
          <mxGeometry x="-1042" y="-395" width="30" height="30" as="geometry" />
        </mxCell>
        <mxCell id="onQa2OD9SXyAo4OJvlsq-46" value="3,4,5" style="ellipse;shape=doubleEllipse;whiteSpace=wrap;html=1;" vertex="1" parent="1">
          <mxGeometry x="-942" y="-450" width="47" height="30" as="geometry" />
        </mxCell>
        <mxCell id="onQa2OD9SXyAo4OJvlsq-47" style="rounded=0;orthogonalLoop=1;jettySize=auto;html=1;curved=1;" edge="1" parent="1" source="onQa2OD9SXyAo4OJvlsq-6" target="onQa2OD9SXyAo4OJvlsq-45">
          <mxGeometry relative="1" as="geometry">
            <mxPoint x="-1116" y="-365" as="sourcePoint" />
            <mxPoint x="-1064" y="-376" as="targetPoint" />
            <Array as="points">
              <mxPoint x="-1082" y="-375" />
            </Array>
          </mxGeometry>
        </mxCell>
        <mxCell id="onQa2OD9SXyAo4OJvlsq-48" value="Z" style="edgeLabel;html=1;align=center;verticalAlign=middle;resizable=0;points=[];" vertex="1" connectable="0" parent="onQa2OD9SXyAo4OJvlsq-47">
          <mxGeometry x="0.1122" relative="1" as="geometry">
            <mxPoint x="7" y="-15" as="offset" />
          </mxGeometry>
        </mxCell>
        <mxCell id="onQa2OD9SXyAo4OJvlsq-49" style="rounded=0;orthogonalLoop=1;jettySize=auto;html=1;exitX=0;exitY=0;exitDx=0;exitDy=0;entryX=1;entryY=0;entryDx=0;entryDy=0;edgeStyle=orthogonalEdgeStyle;curved=1;" edge="1" parent="1" source="onQa2OD9SXyAo4OJvlsq-46" target="onQa2OD9SXyAo4OJvlsq-46">
          <mxGeometry relative="1" as="geometry">
            <mxPoint x="-932" y="-495" as="sourcePoint" />
            <mxPoint x="-881" y="-481" as="targetPoint" />
            <Array as="points">
              <mxPoint x="-935" y="-475" />
              <mxPoint x="-902" y="-475" />
            </Array>
          </mxGeometry>
        </mxCell>
        <mxCell id="onQa2OD9SXyAo4OJvlsq-50" value="X" style="edgeLabel;html=1;align=center;verticalAlign=middle;resizable=0;points=[];" vertex="1" connectable="0" parent="onQa2OD9SXyAo4OJvlsq-49">
          <mxGeometry x="-0.3753" y="-1" relative="1" as="geometry">
            <mxPoint x="15" y="11" as="offset" />
          </mxGeometry>
        </mxCell>
        <mxCell id="onQa2OD9SXyAo4OJvlsq-51" style="rounded=0;orthogonalLoop=1;jettySize=auto;html=1;curved=1;" edge="1" parent="1" source="onQa2OD9SXyAo4OJvlsq-6" target="onQa2OD9SXyAo4OJvlsq-44">
          <mxGeometry relative="1" as="geometry">
            <mxPoint x="-860" y="-541" as="sourcePoint" />
            <mxPoint x="-809" y="-527" as="targetPoint" />
            <Array as="points">
              <mxPoint x="-1062" y="-445" />
            </Array>
          </mxGeometry>
        </mxCell>
        <mxCell id="onQa2OD9SXyAo4OJvlsq-52" value="X" style="edgeLabel;html=1;align=center;verticalAlign=middle;resizable=0;points=[];" vertex="1" connectable="0" parent="onQa2OD9SXyAo4OJvlsq-51">
          <mxGeometry x="-0.3753" y="-1" relative="1" as="geometry">
            <mxPoint x="4" y="11" as="offset" />
          </mxGeometry>
        </mxCell>
        <mxCell id="onQa2OD9SXyAo4OJvlsq-55" style="edgeStyle=orthogonalEdgeStyle;rounded=0;orthogonalLoop=1;jettySize=auto;html=1;exitX=0;exitY=1;exitDx=0;exitDy=0;entryX=1;entryY=1;entryDx=0;entryDy=0;curved=1;" edge="1" parent="1" source="onQa2OD9SXyAo4OJvlsq-46" target="onQa2OD9SXyAo4OJvlsq-46">
          <mxGeometry relative="1" as="geometry">
            <Array as="points">
              <mxPoint x="-935" y="-395" />
              <mxPoint x="-902" y="-395" />
            </Array>
          </mxGeometry>
        </mxCell>
        <mxCell id="onQa2OD9SXyAo4OJvlsq-56" value="Y" style="edgeLabel;html=1;align=center;verticalAlign=middle;resizable=0;points=[];" vertex="1" connectable="0" parent="onQa2OD9SXyAo4OJvlsq-55">
          <mxGeometry x="-0.0399" relative="1" as="geometry">
            <mxPoint x="1" y="-10" as="offset" />
          </mxGeometry>
        </mxCell>
      </root>
    </mxGraphModel>
  </diagram>
</mxfile>
